Coordinates
version=1
nRows=8
nColumns=63
inDegrees=yes

Units are S.I. units (second, meters, Newtons, ...)
If the header above contains a line with 'inDegrees', this indicates whether rotational values are in degrees (yes) or radians (no).

endheader
time	pelvis_tilt	pelvis_list	pelvis_rotation	pelvis_tx	pelvis_ty	pelvis_tz	hip_flexion_r	hip_adduction_r	hip_rotation_r	knee_angle_r	knee_angle_r_beta	ankle_angle_r	subtalar_angle_r	mtp_angle_r	hip_flexion_l	hip_adduction_l	hip_rotation_l	knee_angle_l	knee_angle_l_beta	ankle_angle_l	subtalar_angle_l	mtp_angle_l	L5_S1_Flex_Ext	L5_S1_Lat_Bending	L5_S1_axial_rotation	L4_L5_Flex_Ext	L4_L5_Lat_Bending	L4_L5_axial_rotation	L3_L4_Flex_Ext	L3_L4_Lat_Bending	L3_L4_axial_rotation	L2_L3_Flex_Ext	L2_L3_Lat_Bending	L2_L3_axial_rotation	L1_L2_Flex_Ext	L1_L2_Lat_Bending	L1_L2_axial_rotation	L1_T12_Flex_Ext	L1_T12_Lat_Bending	L1_T12_axial_rotation	Abs_r3	Abs_r2	Abs_r1	Abs_t1	Abs_t2	neck_flexion	neck_bending	neck_rotation	arm_flex_r	arm_add_r	arm_rot_r	elbow_flex_r	pro_sup_r	wrist_flex_r	wrist_dev_r	arm_flex_l	arm_add_l	arm_rot_l	elbow_flex_l	pro_sup_l	wrist_flex_l	wrist_dev_l
1.483333	-2.527576	-5.235644	86.665263	0.296580	0.891140	0.527988	-0.915238	-2.717068	-5.719230	7.395291	0.129072	31.903488	11.376690	0.000000	-3.075798	0.714847	-12.593380	2.285413	0.039888	29.932765	11.969551	0.000000	0.456542	0.669388	-0.342973	0.847844	0.890286	-0.364408	0.750053	1.627551	-0.364408	0.521782	1.627551	-0.300101	0.423945	1.365017	-0.278665	0.260868	1.036883	-0.257229	3.261035	7.572255	-1.907511	0.000000	0.000000	28.334707	11.764340	11.898174	16.571340	-18.378377	48.932208	82.187440	81.028153	18.678782	2.583645	7.226032	-30.871771	36.316654	89.193001	64.507339	20.775503	5.358848
1.500000	-2.617577	-5.135315	86.693169	0.296994	0.891274	0.528208	-0.999006	-2.784156	-5.865405	7.424516	0.129582	31.966998	11.511540	0.000000	-3.141983	0.784745	-12.436804	2.242875	0.039146	29.912266	11.888840	0.000000	0.467859	0.674238	-0.442047	0.868861	0.896736	-0.469675	0.768646	1.639341	-0.469675	0.534716	1.639341	-0.386792	0.434454	1.374905	-0.359164	0.267335	1.044394	-0.331536	3.341871	7.627110	-2.458535	0.000000	0.000000	28.340977	11.213834	10.807913	16.688726	-18.340707	49.114887	81.882396	81.613385	19.293263	3.048892	7.509862	-30.969931	36.497632	88.861536	65.860457	21.106546	4.411432
1.516667	-2.699604	-5.027376	86.730708	0.297377	0.891357	0.528506	-1.082707	-2.854695	-6.038123	7.477217	0.130502	32.042674	11.687388	0.000000	-3.213765	0.847313	-12.255468	2.208036	0.038537	29.892962	11.780583	0.000000	0.474229	0.678170	-0.567970	0.880690	0.901966	-0.603468	0.779110	1.648903	-0.603468	0.541996	1.648903	-0.496974	0.440369	1.382925	-0.461475	0.270974	1.050486	-0.425977	3.387367	7.671597	-3.158877	0.000000	0.000000	28.343323	10.720940	9.823562	17.008782	-18.229212	49.506792	81.509582	81.930876	19.911753	3.626689	7.524231	-31.016039	36.347043	88.613784	67.522104	21.433363	3.365138
1.533333	-2.767886	-4.914093	86.783652	0.297717	0.891395	0.528830	-1.183193	-2.915636	-6.174919	7.519254	0.131236	32.099216	11.805122	0.000000	-3.295394	0.897938	-12.009573	2.176791	0.037992	29.867915	11.594075	0.000000	0.476494	0.679652	-0.697276	0.884897	0.903937	-0.740856	0.782832	1.652505	-0.740856	0.544585	1.652505	-0.610117	0.442472	1.385946	-0.566537	0.272269	1.052780	-0.522957	3.403549	7.688356	-3.878042	0.000000	0.000000	28.344141	10.003704	8.566526	17.364168	-18.108328	49.895689	81.158529	82.100876	20.496017	4.251284	7.370616	-30.993254	36.063579	88.424976	69.380164	21.602038	2.208495
1.550000	-2.820548	-4.806069	86.849556	0.298085	0.891380	0.529229	-1.277468	-2.960104	-6.262689	7.568859	0.132102	32.145331	11.850953	0.000000	-3.375481	0.929715	-11.706593	2.141566	0.037377	29.833593	11.340161	0.000000	0.474977	0.677967	-0.830121	0.882080	0.901696	-0.882004	0.780340	1.648408	-0.882004	0.542851	1.648408	-0.726356	0.441064	1.382510	-0.674473	0.271402	1.050171	-0.622591	3.392713	7.669296	-4.616885	0.000000	0.000000	28.344161	9.197775	7.197378	17.810691	-17.974723	50.352115	80.813769	82.037110	21.180711	5.037785	7.068199	-30.937735	35.705803	88.332401	70.977953	21.485095	1.214273
1.566667	-2.846368	-4.705840	86.933532	0.298448	0.891334	0.529635	-1.384695	-2.975570	-6.316144	7.586502	0.132409	32.157386	11.831018	0.000000	-3.455143	0.931719	-11.349447	2.106006	0.036757	29.804434	11.031508	0.000000	0.471415	0.675314	-0.956178	0.875465	0.898168	-1.015939	0.774488	1.641959	-1.015939	0.538781	1.641959	-0.836656	0.437756	1.377101	-0.776895	0.269367	1.046062	-0.717134	3.367273	7.639289	-5.317977	0.000000	0.000000	28.344071	8.273151	5.753977	18.212976	-17.866741	50.733290	80.516226	81.798259	21.917101	5.859755	6.642297	-30.795927	35.303847	88.295911	72.325436	21.091296	0.321470
1.583333	-2.859508	-4.616002	87.024132	0.298812	0.891267	0.530052	-1.495723	-2.979398	-6.380680	7.581757	0.132327	32.148627	11.799993	0.000000	-3.532813	0.921517	-10.914016	2.067239	0.036080	29.762813	10.616776	0.000000	0.467047	0.669544	-1.068095	0.867354	0.890494	-1.134851	0.767312	1.627930	-1.134851	0.533789	1.627930	-0.934583	0.433700	1.365335	-0.867827	0.266871	1.037124	-0.801071	3.336073	7.574018	-5.940422	0.000000	0.000000	28.343946	7.184999	4.148168	18.547260	-17.825167	51.061322	80.304249	81.492126	22.526524	6.594041	6.141155	-30.570659	34.868394	88.301070	73.460873	20.561418	-0.392673
1.600000	-2.854409	-4.530101	87.111981	0.299200	0.891203	0.530491	-1.616063	-2.961852	-6.387958	7.553354	0.131831	32.096042	11.672009	0.000000	-3.611192	0.889258	-10.522237	2.037654	0.035564	29.731868	10.241443	0.000000	0.461445	0.661979	-1.166865	0.856950	0.880432	-1.239795	0.758108	1.609536	-1.239795	0.527386	1.609536	-1.021007	0.428498	1.349908	-0.948078	0.263670	1.025406	-0.875149	3.296057	7.488442	-6.489756	0.000000	0.000000	28.343221	6.023308	2.533714	18.823944	-17.852137	51.363163	80.156135	81.215404	22.990489	7.153678	5.611495	-30.282603	34.411457	88.323513	74.331108	20.023892	-0.873087
